<svg id="Calque_1" data-name="Calque 1" xmlns="http://www.w3.org/2000/svg" viewBox="0 0 222.4 88.54"><defs><style>.cls-1{fill:none;stroke:#1d1d1b;stroke-miterlimit:10;}.cls-2{font-size:12px;fill:#1d1d1b;font-family:Wingdings-Regular, Wingdings;}</style></defs><path class="cls-1" d="M6,10.69a14.14,14.14,0,0,1,26.83,6.24"/><path class="cls-1" d="M27.85,12.34c2.72,0,4.92,2.74,4.92,6.12"/><path class="cls-1" d="M32.8,18.46c0-3.38,2.21-6.12,4.93-6.12"/><path class="cls-1" d="M88.71,6.34c2.72,0,4.93,2.74,4.93,6.12"/><path class="cls-1" d="M31.77,23.12A14.14,14.14,0,0,1,4.94,16.87"/><path class="cls-1" d="M9.89,21.46C7.16,21.46,5,18.72,5,15.34"/><path class="cls-1" d="M4.93,15.34c0,3.38-2.21,6.12-4.93,6.12"/><path class="cls-1" d="M77.9,8.42a7.92,7.92,0,1,1,15.83,0l-.06,4c0-3.38,2.2-6.12,4.93-6.12"/><path class="cls-1" d="M82.83,17.07c-2.72,0-4.93-2.74-4.93-6.12"/><path class="cls-1" d="M92.34,19.35A7.92,7.92,0,0,1,77.81,15L77.87,11c0,3.38-2.2,6.12-4.93,6.12"/><path class="cls-1" d="M82.83,57.1c-2.72,0-4.93-2.74-4.93-6.12"/><path class="cls-1" d="M92.34,59.37A7.91,7.91,0,0,1,77.81,55l.06-4c0,3.38-2.2,6.12-4.93,6.12"/><path class="cls-1" d="M92.34,84.47a7.91,7.91,0,0,1-14.53-4.35l.06-4.05"/><path class="cls-1" d="M89.06,50.83C91.78,50.83,94,53.58,94,57"/><path class="cls-1" d="M79.55,48.56a7.92,7.92,0,0,1,14.53,4.35L94,57c0-3.38,2.2-6.13,4.92-6.13"/><polyline class="cls-1" points="73.79 80.22 77.8 76.07 82.01 80.22"/><path class="cls-1" d="M79.31,72.66A7.91,7.91,0,0,1,93.84,77l-.07,4"/><polyline class="cls-1" points="97.86 76.9 93.84 81.05 89.64 76.9"/><text class="cls-2" transform="translate(132.77 20.62)"></text></svg>